<svg version="1.1" xmlns="http://www.w3.org/2000/svg" xmlns:xlink="http://www.w3.org/1999/xlink" x="0px" y="0px" viewBox="0 0 511.985 511.985" style="enable-background:new 0 0 511.985 511.985;" xml:space="preserve"><g><g>
<path fill="dimgray" d="M504.13,103.041l-52.642-52.642c-10.146-10.146-27.838-10.146-37.992,0L298.001,165.891 c-7.878,7.884-9.817,19.481-5.839,29.202l-146.824,146.82l-6.604-6.705c-3.271-3.329-8.625-3.4-11.996-0.162L2.617,454.512 c-2.6,2.504-3.346,6.367-1.862,9.658c1.387,3.075,4.442,5.025,7.775,5.025c0.229,0,0.458-0.008,0.692-0.029L192.3,454.374 c2.087-0.167,4.037-1.096,5.483-2.612l21.721-22.754c3.183-3.333,3.146-8.596-0.092-11.879l-7.31-7.423l147.319-147.323 c3.2,1.317,6.656,2.012,10.22,2.012c7.171,0,13.921-2.796,18.996-7.871l115.496-115.492 C514.605,130.553,514.6,113.512,504.13,103.041z M187.684,437.624L31.675,450.232l100.817-97.037l68.954,70.012L187.684,437.624z M200.128,397.547l-42.816-43.475l145.443-145.439l43.142,43.142L200.128,397.547z M492.063,128.966L376.571,244.453 c-3.7,3.708-10.158,3.704-13.858,0.004l-52.642-52.642c-3.817-3.821-3.817-10.037,0-13.858L425.563,62.47 c1.85-1.854,4.313-2.871,6.929-2.871c2.617,0,5.079,1.017,6.929,2.867l52.642,52.642 C495.88,118.928,495.88,125.145,492.063,128.966z">
</path>
</g>
</g>
</svg>