<svg fill="none" viewBox="0 0 24 24" xmlns="http://www.w3.org/2000/svg">
	<g clip-rule="evenodd" fill="white" fill-rule="evenodd">
		<path d="m3 22c-.55228 0-1-.4477-1-1v-18c0-.55228.44771-1 1-1 .55228 0 1 .44772 1 1v18c0 .5523-.44772 1-1 1z" fill="rgb(0,0,0)" style="fill: rgb(255, 255, 255);"></path>
		<path d="m21 22c-.5523 0-1-.4477-1-1v-18c0-.55228.4477-1 1-1s1 .44772 1 1v18c0 .5523-.4477 1-1 1z" fill="rgb(0,0,0)" style="fill: rgb(255, 255, 255);"></path>
		<path d="m8.11046 8.86478c-.07375.33187-.11046.79454-.11046 1.45522v3.36c0 .6607.03671 1.1233.11046 1.4552.07123.3205.16306.4546.23139.523.06833.0683.20242.1601.52293.2313.33187.0738.79454.1105 1.45522.1105h3.36c.6607 0 1.1233-.0367 1.4552-.1105.3205-.0712.4546-.163.523-.2313.0683-.0684.1601-.2025.2313-.523.0738-.3319.1105-.7945.1105-1.4552v-3.36c0-.66068-.0367-1.12335-.1105-1.45522-.0712-.32051-.163-.4546-.2313-.52293-.0684-.06833-.2025-.16016-.523-.23139-.3319-.07375-.7945-.11046-1.4552-.11046h-3.36c-.66068 0-1.12335.03671-1.45522.11046-.32051.07123-.4546.16306-.52293.23139s-.16016.20242-.23139.52293zm.32043-2.70668c.54694-.12156 1.18278-.1581 1.88911-.1581h3.36c.7063 0 1.3422.03654 1.8891.1581.5583.12407 1.0833.34962 1.5033.76954.4199.41992.6454.94495.7695 1.50325.1216.54694.1581 1.18278.1581 1.88911v3.36c0 .7063-.0365 1.3422-.1581 1.8891-.1241.5583-.3496 1.0833-.7695 1.5033-.42.4199-.945.6454-1.5033.7695-.5469.1216-1.1828.1581-1.8891.1581h-3.36c-.70633 0-1.34217-.0365-1.88911-.1581-.5583-.1241-1.08333-.3496-1.50325-.7695-.41992-.42-.64547-.945-.76954-1.5033-.12156-.5469-.1581-1.1828-.1581-1.8891v-3.36c0-.70633.03654-1.34217.1581-1.88911.12407-.5583.34962-1.08333.76954-1.50325s.94495-.64547 1.50325-.76954z" fill="rgb(0,0,0)" style="fill: rgb(255, 255, 255);"></path>
	</g>
</svg>