<svg viewBox="-50 0 442 442.06231" xmlns="http://www.w3.org/2000/svg">
	<g id="remover-svg" fill="white">
		<path d="m31.460938 354.0625h142.746093l29.5-113.96875-94.683593-179.03125v120.453125c14 3.21875 25.808593 16.421875 25.808593 32.183594.03125 17.316406-13.347656 31.707031-30.625 32.933593-17.273437 1.226563-32.554687-11.125-34.972656-28.273437s8.847656-33.246094 25.789063-36.84375v-120.453125l-94.992188 178.96875zm0 0"></path>
		<path d="m120.617188 213.699219c0 10.457031-8.480469 18.9375-18.9375 18.9375-10.460938 0-18.9375-8.480469-18.9375-18.9375 0-10.460938 8.476562-18.941407 18.9375-18.941407 10.457031 0 18.9375 8.480469 18.9375 18.941407zm0 0"></path>
		<path d="m10.023438 368.0625h183v74h-183zm0 0"></path>
		<path d="m260.832031 0c-39.046875 0-72.65625 27.582031-80.273437 65.878906-7.617188 38.296875 12.878906 76.644532 48.953125 91.585938s77.679687 2.320312 99.375-30.144532c21.691406-32.46875 17.429687-75.738281-10.179688-103.347656-15.316406-15.398437-36.15625-24.0312498-57.875-23.972656zm28.773438 100.9375c2.734375 2.734375 2.734375 7.164062 0 9.898438-2.734375 2.734374-7.164063 2.734374-9.898438 0l-19.09375-19.089844-19.089843 19.089844c-2.734376 2.734374-7.164063 2.734374-9.898438 0-2.734375-2.734376-2.734375-7.164063 0-9.898438l19.089844-19.09375-19.089844-19.089844c-2.734375-2.734375-2.734375-7.167968 0-9.902344 2.734375-2.730468 7.164062-2.730468 9.898438 0l19.09375 19.09375 19.089843-19.09375c2.734375-2.730468 7.167969-2.730468 9.902344 0 2.734375 2.734376 2.734375 7.167969 0 9.902344l-19.09375 19.089844zm0 0"></path>
	</g>
</svg>