<!-- icon666.com - MILLIONS vector ICONS FREE -->
<svg viewBox="0 0 48 48" xmlns="http://www.w3.org/2000/svg">
	<g id="slice" fill="white">
		<path d="m44.6572 8.3428a8.01 8.01 0 0 0 -11.3145 0l-7.07 7.0713a2.001 2.001 0 0 0 0 2.8281l8.4854 8.4854a2.0016 2.0016 0 0 0 2.8281 0l7.0713-7.07a8.0118 8.0118 0 0 0 -.0003-11.3148z"></path>
		<path d="m24.8584 19.6563a4.0143 4.0143 0 0 1 -.429-.5215l-23.0837 21.1279a1 1 0 0 0 .6748 1.7373.9855.9855 0 0 0 .1064-.0059l27.9795-3a.9991.9991 0 0 0 .8936-.9941v-6.5859l2.853-2.853a3.999 3.999 0 0 1 -.5112-.4214z"></path>
	</g>
</svg>